<?xml version="1.0" encoding="UTF-8" standalone="no" ?>
<!DOCTYPE svg PUBLIC "-//W3C//DTD SVG 1.1//EN" "http://www.w3.org/Graphics/SVG/1.1/DTD/svg11.dtd">
<svg xmlns="http://www.w3.org/2000/svg" xmlns:xlink="http://www.w3.org/1999/xlink" version="1.1" width="640" height="640" viewBox="0 0 640 640" xml:space="preserve">
<desc>Created with Fabric.js 5.3.0</desc>
<defs>
</defs>
<g transform="matrix(1.2424242161 0 0 0.6480716339 320.000002501 337.5415326766)" id="GveMn07ucH-FKGkqN5nuU"  >
<path style="stroke: rgb(244,68,250); stroke-width: 0; stroke-dasharray: none; stroke-linecap: butt; stroke-dashoffset: 0; stroke-linejoin: miter; stroke-miterlimit: 4; fill: rgb(165,63,43); fill-rule: nonzero; opacity: 1;" vector-effect="non-scaling-stroke"  transform=" translate(0, 0)" d="M 0 -257.27575 C 142.01621 -257.27575 257.27575 -142.01621 257.27575 0 C 257.27575 142.01621 142.01621 257.27575 0 257.27575 C -142.01621 257.27575 -257.27575 142.01621 -257.27575 0 C -257.27575 -142.01621 -142.01621 -257.27575 0 -257.27575 z" stroke-linecap="round" />
</g>
<g transform="matrix(1.3394039674 0 0 0.6506622508 320.000002501 326.201554825)" id="sGQe19v4UpiMig_4yDFqn"  >
<path style="stroke: rgb(190,55,211); stroke-width: 0; stroke-dasharray: none; stroke-linecap: butt; stroke-dashoffset: 0; stroke-linejoin: miter; stroke-miterlimit: 4; fill: rgb(242,231,206); fill-rule: nonzero; opacity: 1;" vector-effect="non-scaling-stroke"  transform=" translate(0, 0)" d="M 0 -214.04208 C 118.15123 -214.04208 214.04208 -118.15123 214.04208 0 C 214.04208 118.15123 118.15123 214.04208 0 214.04208 C -118.15123 214.04208 -214.04208 118.15123 -214.04208 0 C -214.04208 -118.15123 -118.15123 -214.04208 0 -214.04208 z" stroke-linecap="round" />
</g>
<g transform="matrix(1 0 0 0.5337837808 105.2491694352 320)" id="mWdORXLktx9Aj79yeLJE1"  >
<path style="stroke: rgb(161,217,156); stroke-width: 0; stroke-dasharray: none; stroke-linecap: butt; stroke-dashoffset: 0; stroke-linejoin: miter; stroke-miterlimit: 4; fill: rgb(165,63,43); fill-rule: nonzero; opacity: 1;" vector-effect="non-scaling-stroke"  transform=" translate(0, 0)" d="M 0 -52.4474 C 28.95096 -52.4474 52.4474 -28.95097 52.4474 0 C 52.4474 28.95096 28.95097 52.4474 0 52.4474 C -28.95096 52.4474 -52.4474 28.95097 -52.4474 0 C -52.4474 -28.95096 -28.95097 -52.4474 0 -52.4474 z" stroke-linecap="round" />
</g>
<g transform="matrix(1 0 0 0.5337837808 234.3189368771 234.3189368771)" id="r80wSelBcGmjQauar8xCt"  >
<path style="stroke: rgb(161,217,156); stroke-width: 0; stroke-dasharray: none; stroke-linecap: butt; stroke-dashoffset: 0; stroke-linejoin: miter; stroke-miterlimit: 4; fill: rgb(165,63,43); fill-rule: nonzero; opacity: 1;" vector-effect="non-scaling-stroke"  transform=" translate(0, 0)" d="M 0 -52.4474 C 28.95096 -52.4474 52.4474 -28.95097 52.4474 0 C 52.4474 28.95096 28.95097 52.4474 0 52.4474 C -28.95096 52.4474 -52.4474 28.95097 -52.4474 0 C -52.4474 -28.95096 -28.95097 -52.4474 0 -52.4474 z" stroke-linecap="round" />
</g>
<g transform="matrix(1 0 0 0.5337837808 210.1439680732 388.7486172838)" id="Blmpy8nvFO3NLm2GFLdob"  >
<path style="stroke: rgb(161,217,156); stroke-width: 0; stroke-dasharray: none; stroke-linecap: butt; stroke-dashoffset: 0; stroke-linejoin: miter; stroke-miterlimit: 4; fill: rgb(165,63,43); fill-rule: nonzero; opacity: 1;" vector-effect="non-scaling-stroke"  transform=" translate(0, 0)" d="M 0 -52.4474 C 28.95096 -52.4474 52.4474 -28.95097 52.4474 0 C 52.4474 28.95096 28.95097 52.4474 0 52.4474 C -28.95096 52.4474 -52.4474 28.95097 -52.4474 0 C -52.4474 -28.95096 -28.95097 -52.4474 0 -52.4474 z" stroke-linecap="round" />
</g>
<g transform="matrix(1 0 0 0.5337837808 334.9612451827 309.5459612115)" id="3QKZ6hlNB3GPAgQfk-WJX"  >
<path style="stroke: rgb(161,217,156); stroke-width: 0; stroke-dasharray: none; stroke-linecap: butt; stroke-dashoffset: 0; stroke-linejoin: miter; stroke-miterlimit: 4; fill: rgb(165,63,43); fill-rule: nonzero; opacity: 1;" vector-effect="non-scaling-stroke"  transform=" translate(0, 0)" d="M 0 -52.4474 C 28.95096 -52.4474 52.4474 -28.95097 52.4474 0 C 52.4474 28.95096 28.95097 52.4474 0 52.4474 C -28.95096 52.4474 -52.4474 28.95097 -52.4474 0 C -52.4474 -28.95096 -28.95097 -52.4474 0 -52.4474 z" stroke-linecap="round" />
</g>
<g transform="matrix(1 0 0 0.5337837808 436.5448504983 234.3189368771)" id="gPlLQu2OlzBu9_P75rByF"  >
<path style="stroke: rgb(161,217,156); stroke-width: 0; stroke-dasharray: none; stroke-linecap: butt; stroke-dashoffset: 0; stroke-linejoin: miter; stroke-miterlimit: 4; fill: rgb(165,63,43); fill-rule: nonzero; opacity: 1;" vector-effect="non-scaling-stroke"  transform=" translate(0, 0)" d="M 0 -52.4474 C 28.95096 -52.4474 52.4474 -28.95097 52.4474 0 C 52.4474 28.95096 28.95097 52.4474 0 52.4474 C -28.95096 52.4474 -52.4474 28.95097 -52.4474 0 C -52.4474 -28.95096 -28.95097 -52.4474 0 -52.4474 z" stroke-linecap="round" />
</g>
<g transform="matrix(1 0 0 0.5337837808 425.9911406423 403.9867136659)" id="43I05-AwJtvWKLrvdjBRf"  >
<path style="stroke: rgb(161,217,156); stroke-width: 0; stroke-dasharray: none; stroke-linecap: butt; stroke-dashoffset: 0; stroke-linejoin: miter; stroke-miterlimit: 4; fill: rgb(165,63,43); fill-rule: nonzero; opacity: 1;" vector-effect="non-scaling-stroke"  transform=" translate(0, 0)" d="M 0 -52.4474 C 28.95096 -52.4474 52.4474 -28.95097 52.4474 0 C 52.4474 28.95096 28.95097 52.4474 0 52.4474 C -28.95096 52.4474 -52.4474 28.95097 -52.4474 0 C -52.4474 -28.95096 -28.95097 -52.4474 0 -52.4474 z" stroke-linecap="round" />
</g>
<g transform="matrix(1 0 0 0.5337837808 517.4972314507 314.7951273533)" id="NlK46CziESmeAqUjTLkhK"  >
<path style="stroke: rgb(161,217,156); stroke-width: 0; stroke-dasharray: none; stroke-linecap: butt; stroke-dashoffset: 0; stroke-linejoin: miter; stroke-miterlimit: 4; fill: rgb(165,63,43); fill-rule: nonzero; opacity: 1;" vector-effect="non-scaling-stroke"  transform=" translate(0, 0)" d="M 0 -52.4474 C 28.95096 -52.4474 52.4474 -28.95097 52.4474 0 C 52.4474 28.95096 28.95097 52.4474 0 52.4474 C -28.95096 52.4474 -52.4474 28.95097 -52.4474 0 C -52.4474 -28.95096 -28.95097 -52.4474 0 -52.4474 z" stroke-linecap="round" />
</g>
</svg>